<svg width="180" height="48" viewBox="0 0 180 48" fill="none" xmlns="http://www.w3.org/2000/svg">
<g clip-path="url(#clip0_376_1332)">
<path d="M90.7432 47.3192H82.8695C82.2096 25.005 63.9251 7.11774 41.4507 7.11774C18.9764 7.11774 0.845672 24.8448 0.032033 47.0181C0.0128132 46.4799 0 45.9418 0 45.4036C0 20.3282 20.3282 0 45.4036 0C70.4791 0 90.8072 20.3282 90.8072 45.4036C90.8072 46.0507 90.7688 46.6849 90.7432 47.3192ZM69.7615 46.0187C69.7615 29.0283 55.9873 15.2541 38.997 15.2541C22.0067 15.2541 8.22608 29.0283 8.22608 46.0187C8.22608 46.3838 8.23249 46.749 8.2453 47.1142C8.79627 32.0907 21.1482 20.0783 36.3126 20.0783C51.4771 20.0783 63.9315 32.1996 64.38 47.3192H69.7167C69.7359 46.8899 69.7615 46.4543 69.7615 46.0187ZM41.9953 46.8067C41.9953 40.0989 36.2742 34.6661 29.2205 34.6661C22.1669 34.6661 16.4458 40.0989 16.4458 46.8067C16.4458 46.954 16.4458 47.095 16.4522 47.2359C16.6828 41.3034 21.8081 36.5625 28.1058 36.5625C34.4035 36.5625 39.5736 41.3482 39.7594 47.3128H41.9761C41.9825 47.1398 41.9953 46.9732 41.9953 46.8003V46.8067Z" fill="url(#paint0_linear_376_1332)"/>
<path d="M130.855 35.6271L136.211 20.8599H134.385L129.964 32.9491L125.403 20.8599H123.302L128.875 35.6271H130.855Z" fill="white"/>
<path d="M137.428 20.8599L132.072 35.6271H133.898L138.319 23.5314L142.88 35.6271H144.982L139.408 20.8599H137.428Z" fill="white"/>
<path d="M165.54 35.608C166.111 35.608 166.642 35.576 167.129 35.5055C167.616 35.4414 168.09 35.3325 168.539 35.1916C168.994 35.0506 169.506 34.8264 170.083 34.5317V32.8211C169.436 33.1671 168.897 33.4233 168.455 33.5771C168.02 33.7309 167.578 33.8526 167.142 33.9295C166.7 34.0063 166.258 34.0512 165.816 34.0512C164.221 34.0512 162.984 33.5194 162.113 32.4495C161.242 31.3796 160.806 29.983 160.806 28.2532C160.806 26.5234 161.184 25.1908 161.94 24.0505C162.696 22.9101 163.919 22.3335 165.604 22.3335C166.085 22.3335 166.591 22.3783 167.129 22.468C167.667 22.5577 168.641 22.846 170.063 23.3329V21.4622C168.372 21.0522 166.899 20.8472 165.643 20.8472C163.285 20.8472 161.536 21.5391 160.396 22.9229C159.255 24.3067 158.685 26.0814 158.685 28.2404C158.685 30.3994 159.236 32.1164 160.332 33.513C161.427 34.9097 163.164 35.6144 165.534 35.6144L165.54 35.608Z" fill="white"/>
<path d="M155.668 20.8599V32.2508L148.262 20.8599H146.199V35.6271H148.005V24.2361L155.418 35.6271H157.474V20.8599H155.668Z" fill="white"/>
<path d="M123.417 24.0824C122.866 23.0253 122.097 22.2245 121.123 21.6799C120.143 21.1289 118.708 20.8599 116.818 20.8599H114.006V22.4231H115.729C117.741 22.4231 119.124 22.6793 119.88 23.1983C120.636 23.7108 121.181 24.3963 121.521 25.2548C121.86 26.1069 122.027 27.055 122.027 28.0929C122.027 29.2717 121.828 30.3352 121.437 31.2962C121.046 32.2572 120.502 32.9555 119.81 33.3976C119.118 33.8396 117.337 34.0639 115.94 34.0639H115.428V35.6335H116.19C118.035 35.6335 120.13 35.2811 121.168 34.5764C122.206 33.8717 122.975 32.9363 123.487 31.7639C123.994 30.5915 124.25 29.3038 124.25 27.9007C124.25 26.4144 123.974 25.1459 123.417 24.0952V24.0824Z" fill="white"/>
<path d="M103.108 35.6207L111.103 20.8599H114.006V35.6207H111.955V23.288L105.28 35.6207H103.108Z" fill="white"/>
<path d="M179.628 27.1641H174.894V28.7081H179.628V27.1641Z" fill="white"/>
<path d="M173.395 34.0575V28.708V27.164V22.4231H179.571V20.8599H171.3V35.6271H180V34.0575H173.395Z" fill="white"/>
<path d="M141.509 29.4128H136.787V30.9568H141.509V29.4128Z" fill="white"/>
<path d="M116.28 47.6907C115.575 47.6907 114.96 47.5305 114.441 47.2166C113.922 46.9027 113.512 46.4414 113.23 45.8328C112.942 45.2241 112.801 44.5386 112.801 43.7763C112.801 43.0139 112.936 42.3668 113.211 41.7582C113.487 41.1495 113.89 40.6819 114.422 40.3551C114.954 40.0284 115.575 39.8618 116.286 39.8618C116.997 39.8618 117.619 40.0284 118.151 40.3551C118.682 40.6819 119.086 41.1495 119.361 41.7582C119.637 42.3668 119.771 43.0395 119.771 43.7763C119.771 44.513 119.637 45.1793 119.368 45.7815C119.099 46.3837 118.695 46.8514 118.17 47.1846C117.638 47.5177 117.017 47.6843 116.286 47.6843L116.28 47.6907ZM116.28 46.9027C117.029 46.9027 117.612 46.6208 118.022 46.0634C118.432 45.4996 118.637 44.7372 118.637 43.7698C118.637 42.8024 118.432 42.0465 118.016 41.4891C117.6 40.9317 117.023 40.6562 116.273 40.6562C115.524 40.6562 114.947 40.9317 114.531 41.4891C114.114 42.0465 113.909 42.8024 113.909 43.7698C113.909 44.7372 114.114 45.4996 114.524 46.0634C114.934 46.6272 115.517 46.9027 116.267 46.9027H116.28Z" fill="white"/>
<path d="M125.051 47.5049V40.0476H126.108V46.7105H129.413V47.4985H125.044L125.051 47.5049Z" fill="white"/>
<path d="M134.295 40.0541H135.352V44.7565C135.352 45.5766 135.506 46.1403 135.814 46.4415C136.121 46.749 136.544 46.9027 137.095 46.9027C137.441 46.9027 137.736 46.8451 137.973 46.7233C138.21 46.6016 138.395 46.4094 138.524 46.1403C138.652 45.8713 138.722 45.4228 138.722 44.7886V40.0477H139.651V44.7693C139.651 45.5766 139.549 46.1596 139.35 46.5183C139.151 46.8771 138.869 47.159 138.504 47.3704C138.139 47.5818 137.659 47.6843 137.056 47.6843C136.416 47.6843 135.897 47.5754 135.5 47.3576C135.102 47.1398 134.808 46.8387 134.603 46.4607C134.404 46.0827 134.302 45.5061 134.302 44.7373V40.0413L134.295 40.0541Z" fill="white"/>
<path d="M147.089 47.5049V40.842H144.443V40.0476H150.792V40.842H148.146V47.5049H147.089Z" fill="white"/>
<path d="M155.655 47.5049V40.0476H156.712V47.5049H155.655Z" fill="white"/>
<path d="M165.495 47.6907C164.791 47.6907 164.176 47.5305 163.657 47.2166C163.138 46.9027 162.728 46.4414 162.446 45.8328C162.158 45.2241 162.017 44.5386 162.017 43.7763C162.017 43.0139 162.151 42.3668 162.427 41.7582C162.702 41.1495 163.106 40.6819 163.637 40.3551C164.169 40.0284 164.791 39.8618 165.502 39.8618C166.213 39.8618 166.834 40.0284 167.366 40.3551C167.898 40.6819 168.301 41.1495 168.577 41.7582C168.852 42.3668 168.987 43.0395 168.987 43.7763C168.987 44.513 168.852 45.1793 168.583 45.7815C168.314 46.3837 167.911 46.8514 167.385 47.1846C166.86 47.5177 166.232 47.6843 165.502 47.6843L165.495 47.6907ZM165.495 46.9027C166.245 46.9027 166.828 46.6208 167.238 46.0634C167.648 45.4996 167.853 44.7372 167.853 43.7698C167.853 42.8024 167.648 42.0465 167.232 41.4891C166.815 40.9317 166.239 40.6562 165.489 40.6562C164.739 40.6562 164.163 40.9317 163.746 41.4891C163.33 42.0465 163.125 42.8024 163.125 43.7698C163.125 44.7372 163.33 45.4996 163.74 46.0634C164.15 46.6272 164.733 46.9027 165.483 46.9027H165.495Z" fill="white"/>
<path d="M174.311 47.5049V40.0476H175.355L179.09 45.8007V40.0476H180V47.5049H178.962L175.221 41.7582V47.5049H174.311Z" fill="white"/>
<path d="M107.234 40.1245C107.234 40.1245 105.703 39.5351 104.71 40.7716C103.716 42.0145 104.613 43.0908 104.613 43.0908C104.613 43.0908 105.049 43.6225 105.869 44.0838C106.638 44.5195 107.131 44.9039 107.131 45.4933C107.131 46.0827 106.51 46.7554 105.741 46.8643C104.972 46.9732 104.242 46.8771 103.114 46.3261V47.3832C103.114 47.3832 104.601 47.7932 105.754 47.6587C107.086 47.5049 108.06 46.9091 108.06 45.4933C108.06 44.4234 107.17 43.7507 106.74 43.488C106.401 43.283 106.004 43.11 105.728 42.8217C105.459 42.5462 105.286 42.3092 105.286 41.8415C105.286 41.4891 105.638 40.3295 107.247 41.0855V40.1117L107.234 40.1245Z" fill="white"/>
</g>
<defs>
<linearGradient id="paint0_linear_376_1332" x1="45.4036" y1="47.3192" x2="45.4036" y2="0" gradientUnits="userSpaceOnUse">
<stop stop-color="#6ABAA4"/>
<stop offset="1" stop-color="#39B2D6"/>
</linearGradient>
<clipPath id="clip0_376_1332">
<rect width="180" height="47.6908" fill="white"/>
</clipPath>
</defs>
</svg>
