<svg width="32" height="32" viewBox="0 0 32 32" fill="none" xmlns="http://www.w3.org/2000/svg">
<path fill-rule="evenodd" clip-rule="evenodd" d="M3.36892 0.884458C3.63994 0.342404 4.19396 0 4.8 0H27.2C27.806 0 28.3601 0.342404 28.6311 0.884458L31.8311 7.28446C31.9422 7.50663 32 7.75161 32 8V9.6C32 11.2974 31.3257 12.9253 30.1255 14.1255C29.7265 14.5244 29.2803 14.8653 28.8 15.1426V28.8H30.4C31.2837 28.8 32 29.5163 32 30.4C32 31.2837 31.2837 32 30.4 32H1.6C0.716344 32 0 31.2837 0 30.4C0 29.5163 0.716344 28.8 1.6 28.8H3.2V15.1426C2.71969 14.8653 2.27348 14.5244 1.87452 14.1255C0.674284 12.9253 0 11.2974 0 9.6V8C0 7.75161 0.0578321 7.50663 0.168917 7.28446L3.36892 0.884458ZM6.4 16V28.8H9.6V24C9.6 22.727 10.1057 21.5061 11.0059 20.6059C11.9061 19.7057 13.127 19.2 14.4 19.2H17.6C18.873 19.2 20.0939 19.7057 20.9941 20.6059C21.8943 21.5061 22.4 22.727 22.4 24V28.8H25.6V16C23.9026 16 22.2748 15.3257 21.0745 14.1255C20.9797 14.0307 20.8882 13.9332 20.8 13.8332C20.7118 13.9332 20.6203 14.0307 20.5255 14.1255C19.3253 15.3257 17.6974 16 16 16C14.3026 16 12.6747 15.3257 11.4745 14.1255C11.3797 14.0307 11.2882 13.9332 11.2 13.8332C11.1118 13.9332 11.0203 14.0307 10.9255 14.1255C9.72525 15.3257 8.09738 16 6.4 16ZM12.8 9.6C12.8 10.4487 13.1371 11.2626 13.7373 11.8627C14.3374 12.4629 15.1513 12.8 16 12.8C16.8487 12.8 17.6626 12.4629 18.2627 11.8627C18.8629 11.2626 19.2 10.4487 19.2 9.6H12.8ZM4.18885 6.4L5.78885 3.2H26.2111L27.8111 6.4H4.18885ZM22.4 9.6C22.4 10.4487 22.7371 11.2626 23.3373 11.8627C23.9374 12.4629 24.7513 12.8 25.6 12.8C26.4487 12.8 27.2626 12.4629 27.8627 11.8627C28.4629 11.2626 28.8 10.4487 28.8 9.6H22.4ZM3.2 9.6H9.6C9.6 10.4487 9.26286 11.2626 8.66274 11.8627C8.06263 12.4629 7.24869 12.8 6.4 12.8C5.55131 12.8 4.73737 12.4629 4.13726 11.8627C3.53714 11.2626 3.2 10.4487 3.2 9.6ZM19.2 28.8V24C19.2 23.5757 19.0314 23.1687 18.7314 22.8686C18.4313 22.5686 18.0243 22.4 17.6 22.4H14.4C13.9757 22.4 13.5687 22.5686 13.2686 22.8686C12.9686 23.1687 12.8 23.5757 12.8 24V28.8H19.2Z" fill="#5D62FF"/>
</svg>
