<svg width="36" height="30" viewBox="0 0 36 30" fill="none" xmlns="http://www.w3.org/2000/svg">
<path d="M33.9547 26.1017H33.3615V14.8305C33.3615 14.0438 33.049 13.2894 32.4927 12.7332C31.9365 12.1769 31.1821 11.8644 30.3954 11.8644H23.2767V2.9661C23.2767 2.17944 22.9642 1.425 22.408 0.868751C21.8517 0.312499 21.0973 0 20.3106 0H6.07336C5.2867 0 4.53226 0.312499 3.97601 0.868751C3.41976 1.425 3.10726 2.17944 3.10726 2.9661V26.1017H2.51404C2.04204 26.1017 1.58938 26.2892 1.25563 26.6229C0.921875 26.9567 0.734375 27.4094 0.734375 27.8814C0.734375 28.3534 0.921875 28.806 1.25563 29.1398C1.58938 29.4735 2.04204 29.661 2.51404 29.661H33.9547C34.4267 29.661 34.8794 29.4735 35.2131 29.1398C35.5469 28.806 35.7344 28.3534 35.7344 27.8814C35.7344 27.4094 35.5469 26.9567 35.2131 26.6229C34.8794 26.2892 34.4267 26.1017 33.9547 26.1017ZM29.8022 15.4237V26.1017H23.2767V15.4237H29.8022ZM6.66658 3.55932H19.7174V26.1017H17.9378V19.5763C17.9378 19.1043 17.7503 18.6516 17.4165 18.3179C17.0828 17.9841 16.6301 17.7966 16.1581 17.7966H10.2259C9.75391 17.7966 9.30124 17.9841 8.96749 18.3179C8.63374 18.6516 8.44624 19.1043 8.44624 19.5763V26.1017H6.66658V3.55932ZM14.3784 26.1017H12.0056V21.3559H14.3784V26.1017ZM8.44624 10.0847C8.44624 9.61275 8.63374 9.16009 8.96749 8.82634C9.30124 8.49258 9.75391 8.30508 10.2259 8.30508H11.4123V7.11864C11.4123 6.64665 11.5998 6.19398 11.9336 5.86023C12.2673 5.52648 12.72 5.33898 13.192 5.33898C13.664 5.33898 14.1167 5.52648 14.4504 5.86023C14.7842 6.19398 14.9717 6.64665 14.9717 7.11864V8.30508H16.1581C16.6301 8.30508 17.0828 8.49258 17.4165 8.82634C17.7503 9.16009 17.9378 9.61275 17.9378 10.0847C17.9378 10.5567 17.7503 11.0094 17.4165 11.3432C17.0828 11.6769 16.6301 11.8644 16.1581 11.8644H14.9717V13.0508C14.9717 13.5228 14.7842 13.9755 14.4504 14.3093C14.1167 14.643 13.664 14.8305 13.192 14.8305C12.72 14.8305 12.2673 14.643 11.9336 14.3093C11.5998 13.9755 11.4123 13.5228 11.4123 13.0508V11.8644H10.2259C9.75391 11.8644 9.30124 11.6769 8.96749 11.3432C8.63374 11.0094 8.44624 10.5567 8.44624 10.0847Z" fill="#5D62FF"/>
</svg>
