<svg width="35" height="29" viewBox="0 0 35 29" fill="none" xmlns="http://www.w3.org/2000/svg">
<path d="M33.2787 25.2459H31.5574V10.2275C31.9388 10.0911 32.26 9.82466 32.4643 9.47491C32.6687 9.12515 32.7431 8.71454 32.6746 8.31531C32.6061 7.91607 32.3989 7.5538 32.0896 7.29223C31.7803 7.03065 31.3887 6.88654 30.9836 6.88525H25.2459V3.34221C25.6273 3.20589 25.9485 2.93941 26.1528 2.58966C26.3572 2.23991 26.4317 1.82929 26.3631 1.43006C26.2946 1.03082 26.0874 0.668552 25.7781 0.40698C25.4688 0.145408 25.0772 0.00129598 24.6721 0H4.01639C3.61132 0.00129598 3.21968 0.145408 2.91038 0.40698C2.60109 0.668552 2.39394 1.03082 2.32541 1.43006C2.25687 1.82929 2.33132 2.23991 2.53567 2.58966C2.74002 2.93941 3.06118 3.20589 3.44262 3.34221V25.2459H1.72131C1.26479 25.2459 0.826969 25.4273 0.50416 25.7501C0.181352 26.0729 0 26.5107 0 26.9672C0 27.4237 0.181352 27.8616 0.50416 28.1844C0.826969 28.5072 1.26479 28.6885 1.72131 28.6885H33.2787C33.7352 28.6885 34.173 28.5072 34.4958 28.1844C34.8186 27.8616 35 27.4237 35 26.9672C35 26.5107 34.8186 26.0729 34.4958 25.7501C34.173 25.4273 33.7352 25.2459 33.2787 25.2459ZM28.1148 10.3279V25.2459H25.2459V10.3279H28.1148ZM6.88525 3.44262H21.8033V25.2459H19.5082V18.9344C19.5082 18.4779 19.3268 18.0401 19.004 17.7173C18.6812 17.3945 18.2434 17.2131 17.7869 17.2131H10.9016C10.4451 17.2131 10.0073 17.3945 9.68449 17.7173C9.36168 18.0401 9.18033 18.4779 9.18033 18.9344V25.2459H6.88525V3.44262ZM16.0656 25.2459H12.623V20.6557H16.0656V25.2459ZM8.60656 7.45902C8.60656 7.0025 8.78791 6.56467 9.11072 6.24186C9.43353 5.91906 9.87135 5.7377 10.3279 5.7377H11.4754C11.9319 5.7377 12.3698 5.91906 12.6926 6.24186C13.0154 6.56467 13.1967 7.0025 13.1967 7.45902C13.1967 7.91554 13.0154 8.35336 12.6926 8.67617C12.3698 8.99898 11.9319 9.18033 11.4754 9.18033H10.3279C9.87135 9.18033 9.43353 8.99898 9.11072 8.67617C8.78791 8.35336 8.60656 7.91554 8.60656 7.45902ZM15.4918 7.45902C15.4918 7.0025 15.6732 6.56467 15.996 6.24186C16.3188 5.91906 16.7566 5.7377 17.2131 5.7377H18.3607C18.8172 5.7377 19.255 5.91906 19.5778 6.24186C19.9006 6.56467 20.082 7.0025 20.082 7.45902C20.082 7.91554 19.9006 8.35336 19.5778 8.67617C19.255 8.99898 18.8172 9.18033 18.3607 9.18033H17.2131C16.7566 9.18033 16.3188 8.99898 15.996 8.67617C15.6732 8.35336 15.4918 7.91554 15.4918 7.45902ZM8.60656 13.1967C8.60656 12.7402 8.78791 12.3024 9.11072 11.9796C9.43353 11.6568 9.87135 11.4754 10.3279 11.4754H11.4754C11.9319 11.4754 12.3698 11.6568 12.6926 11.9796C13.0154 12.3024 13.1967 12.7402 13.1967 13.1967C13.1967 13.6532 13.0154 14.0911 12.6926 14.4139C12.3698 14.7367 11.9319 14.918 11.4754 14.918H10.3279C9.87135 14.918 9.43353 14.7367 9.11072 14.4139C8.78791 14.0911 8.60656 13.6532 8.60656 13.1967ZM15.4918 13.1967C15.4918 12.7402 15.6732 12.3024 15.996 11.9796C16.3188 11.6568 16.7566 11.4754 17.2131 11.4754H18.3607C18.8172 11.4754 19.255 11.6568 19.5778 11.9796C19.9006 12.3024 20.082 12.7402 20.082 13.1967C20.082 13.6532 19.9006 14.0911 19.5778 14.4139C19.255 14.7367 18.8172 14.918 18.3607 14.918H17.2131C16.7566 14.918 16.3188 14.7367 15.996 14.4139C15.6732 14.0911 15.4918 13.6532 15.4918 13.1967Z" fill="#5D62FF"/>
</svg>
