<svg width="80" height="80" viewBox="0 0 80 80" fill="none" xmlns="http://www.w3.org/2000/svg">
<path d="M38.2333 54.26C38.702 54.7282 39.3375 54.9911 40 54.9911C40.6625 54.9911 41.2979 54.7282 41.7666 54.26L49.2666 46.7633C49.7082 46.2894 49.9486 45.6626 49.9372 45.0149C49.9258 44.3673 49.6634 43.7493 49.2054 43.2913C48.7473 42.8332 48.1294 42.5709 47.4817 42.5594C46.834 42.548 46.2072 42.7884 45.7333 43.23L40 48.9533L34.2666 43.2233C34.0359 42.9847 33.7599 42.7944 33.4549 42.6635C33.1498 42.5326 32.8217 42.4638 32.4898 42.4611C32.1578 42.4583 31.8287 42.5217 31.5215 42.6476C31.2143 42.7734 30.9353 42.9592 30.7006 43.194C30.466 43.4289 30.2805 43.7081 30.155 44.0154C30.0294 44.3227 29.9663 44.6519 29.9693 44.9839C29.9724 45.3158 30.0415 45.6438 30.1727 45.9488C30.3038 46.2537 30.4944 46.5295 30.7333 46.76L38.2333 54.26ZM40 30.1833C39.2927 30.1833 38.6144 29.9024 38.1143 29.4023C37.6142 28.9022 37.3333 28.2239 37.3333 27.5167C37.3333 26.8094 37.6142 26.1312 38.1143 25.6311C38.6144 25.131 39.2927 24.85 40 24.85C40.7072 24.85 41.3855 25.131 41.8856 25.6311C42.3857 26.1312 42.6666 26.8094 42.6666 27.5167C42.6666 28.2239 42.3857 28.9022 41.8856 29.4023C41.3855 29.9024 40.7072 30.1833 40 30.1833ZM37.3333 36.9033C37.3333 37.2535 37.4023 37.6003 37.5363 37.9238C37.6703 38.2474 37.8667 38.5413 38.1143 38.789C38.362 39.0366 38.6559 39.233 38.9795 39.367C39.303 39.501 39.6498 39.57 40 39.57C40.3502 39.57 40.6969 39.501 41.0205 39.367C41.344 39.233 41.638 39.0366 41.8856 38.789C42.1332 38.5413 42.3296 38.2474 42.4636 37.9238C42.5977 37.6003 42.6666 37.2535 42.6666 36.9033C42.6666 36.1961 42.3857 35.5178 41.8856 35.0177C41.3855 34.5176 40.7072 34.2367 40 34.2367C39.2927 34.2367 38.6144 34.5176 38.1143 35.0177C37.6142 35.5178 37.3333 36.1961 37.3333 36.9033Z" fill="#5D62FF"/>
<path fill-rule="evenodd" clip-rule="evenodd" d="M40 6.67C33.3696 6.67 27.0107 9.30392 22.3223 13.9923C17.6339 18.6807 15 25.0396 15 31.67V48.3367C15 54.9671 17.6339 61.3259 22.3223 66.0143C27.0107 70.7027 33.3696 73.3367 40 73.3367C46.6304 73.3367 52.9893 70.7027 57.6777 66.0143C62.3661 61.3259 65 54.9671 65 48.3367V31.67C65 25.0396 62.3661 18.6807 57.6777 13.9923C52.9893 9.30392 46.6304 6.67 40 6.67ZM20 31.67C20 26.3657 22.1071 21.2786 25.8579 17.5279C29.6086 13.7771 34.6957 11.67 40 11.67C45.3043 11.67 50.3914 13.7771 54.1421 17.5279C57.8929 21.2786 60 26.3657 60 31.67V48.3367C60 53.641 57.8929 58.7281 54.1421 62.4788C50.3914 66.2295 45.3043 68.3367 40 68.3367C34.6957 68.3367 29.6086 66.2295 25.8579 62.4788C22.1071 58.7281 20 53.641 20 48.3367V31.67Z" fill="#5D62FF"/>
</svg>
